<svg width="81" height="74" viewBox="0 0 81 74" fill="none" xmlns="http://www.w3.org/2000/svg">
<mask id="path-1-inside-1_967_1183" fill="white">
<path fill-rule="evenodd" clip-rule="evenodd" d="M70.0535 45C66.4559 59.9175 53.0222 71 37 71C18.2223 71 3 55.7777 3 37C3 18.2223 18.2223 3 37 3C54.4244 3 68.7875 16.1073 70.7672 33H73.7863C71.7919 14.4467 56.0831 0 37 0C16.5655 0 0 16.5655 0 37C0 57.4345 16.5655 74 37 74C54.6877 74 69.4766 61.5887 73.1329 45H70.0535Z"/>
</mask>
<path fill-rule="evenodd" clip-rule="evenodd" d="M70.0535 45C66.4559 59.9175 53.0222 71 37 71C18.2223 71 3 55.7777 3 37C3 18.2223 18.2223 3 37 3C54.4244 3 68.7875 16.1073 70.7672 33H73.7863C71.7919 14.4467 56.0831 0 37 0C16.5655 0 0 16.5655 0 37C0 57.4345 16.5655 74 37 74C54.6877 74 69.4766 61.5887 73.1329 45H70.0535Z" fill="white"/>
<path d="M70.0535 45V44H69.266L69.0814 44.7656L70.0535 45ZM70.7672 33L69.774 33.1164L69.8775 34H70.7672V33ZM73.7863 33V34H74.8996L74.7806 32.8931L73.7863 33ZM73.1329 45L74.1094 45.2152L74.3773 44H73.1329V45ZM37 72C53.4947 72 67.3222 60.5906 71.0256 45.2344L69.0814 44.7656C65.5895 59.2443 52.5496 70 37 70V72ZM2 37C2 56.33 17.67 72 37 72V70C18.7746 70 4 55.2254 4 37H2ZM37 2C17.67 2 2 17.67 2 37H4C4 18.7746 18.7746 4 37 4V2ZM71.7604 32.8836C69.7223 15.493 54.9376 2 37 2V4C53.9112 4 67.8526 16.7216 69.774 33.1164L71.7604 32.8836ZM70.7672 34H73.7863V32H70.7672V34ZM74.7806 32.8931C72.7321 13.8374 56.5995 -1 37 -1V1C55.5666 1 70.8516 15.0561 72.792 33.1069L74.7806 32.8931ZM37 -1C16.0132 -1 -1 16.0132 -1 37H1C1 17.1177 17.1177 1 37 1V-1ZM-1 37C-1 57.9868 16.0132 75 37 75V73C17.1177 73 1 56.8823 1 37H-1ZM37 75C55.167 75 70.3542 62.2526 74.1094 45.2152L72.1563 44.7848C68.5989 60.9249 54.2084 73 37 73V75ZM73.1329 44H70.0535V46H73.1329V44Z" fill="white" mask="url(#path-1-inside-1_967_1183)"/>
<line x1="64.923" y1="28.5802" x2="74.3179" y2="33.523" stroke="white" stroke-width="3"/>
<line x1="72.2796" y1="34.1556" x2="77.2223" y2="24.7607" stroke="white" stroke-width="3"/>
<line x1="37.5" y1="39.8076" x2="37.5" y2="12" stroke="white" stroke-width="3"/>
<line x1="38.1577" y1="40.9602" x2="22.8932" y2="52.2737" stroke="white" stroke-width="3"/>
<circle cx="37" cy="41" r="3" fill="white"/>
</svg>
